<?xml version="1.0" standalone="no"?><svg xmlns="http://www.w3.org/2000/svg" viewBox="0 0 1440 320"><path fill="#ffffff" fill-opacity="1" d="M0,224L40,224C80,224,160,224,240,202.7C320,181,400,139,480,149.3C560,160,640,224,720,240C800,256,880,224,960,202.7C1040,181,1120,171,1200,165.3C1280,160,1360,160,1400,160L1440,160L1440,320L1400,320C1360,320,1280,320,1200,320C1120,320,1040,320,960,320C880,320,800,320,720,320C640,320,560,320,480,320C400,320,320,320,240,320C160,320,80,320,40,320L0,320Z"></path></svg>